<?xml version="1.0" standalone="no"?>
<!DOCTYPE svg PUBLIC "-//W3C//DTD SVG 20010904//EN"
 "http://www.w3.org/TR/2001/REC-SVG-20010904/DTD/svg10.dtd">
<svg version="1.0" xmlns="http://www.w3.org/2000/svg"
 width="265.000000pt" height="210.000000pt" viewBox="0 0 265.000000 210.000000"
 preserveAspectRatio="xMidYMid meet">

<g transform="translate(0.000000,210.000000) scale(0.100000,-0.100000)"
fill="#000000" stroke="none">
<path d="M629 1469 c-101 -104 -186 -193 -189 -197 -2 -4 82 78 186 181 l191
189 216 -161 c119 -89 224 -161 234 -160 14 0 13 2 -5 10 -14 5 -20 13 -16 20
4 8 3 9 -4 5 -13 -8 -132 78 -132 95 0 6 -4 8 -9 5 -5 -3 -14 1 -21 9 -10 12
-9 15 6 16 18 0 18 1 -1 9 l-20 9 20 1 c12 1 15 4 7 7 -7 3 -19 0 -26 -7 -9
-7 -16 -7 -20 -1 -3 5 0 12 6 15 7 4 3 4 -9 2 -13 -2 -23 -1 -23 2 0 4 -17 18
-38 32 -20 14 -41 29 -47 33 -5 4 -19 15 -30 23 -19 15 -19 15 3 4 14 -7 22
-7 22 0 0 5 -20 15 -45 21 -25 6 -48 15 -51 20 -3 5 -9 9 -13 9 -4 0 -90 -86
-192 -191z"/>
<path d="M948 1603 c6 -2 10 -9 7 -14 -4 -5 2 -6 11 -2 13 5 15 3 9 -8 -7 -11
-6 -12 7 -2 18 15 32 5 17 -13 -10 -13 6 -32 18 -20 4 3 1 6 -7 6 -10 0 -10 3
-1 14 15 18 75 1 64 -17 -5 -9 -3 -9 8 -1 11 9 36 4 109 -22 52 -18 89 -33 83
-33 -7 -1 -13 -6 -13 -12 0 -8 5 -7 15 1 9 7 12 16 8 20 -7 7 -159 59 -186 64
-7 1 -43 12 -81 24 -61 20 -101 29 -68 15z"/>
<path d="M2156 1593 c-15 -4 -16 -7 -5 -14 8 -5 -10 -6 -46 -3 -33 3 -57 3
-53 -1 4 -5 25 -9 45 -11 21 -1 42 -3 46 -3 15 -2 -14 -41 -31 -42 -10 0 -12
-3 -4 -6 18 -7 15 -23 -5 -24 -12 0 -13 -2 -5 -6 10 -4 10 -8 1 -19 -12 -14
-23 -74 -14 -74 3 0 26 41 51 92 35 70 48 88 56 77 8 -11 9 -10 4 4 -3 10 -6
23 -6 28 0 9 -3 10 -34 2z"/>
<path d="M1916 1553 c-6 -14 -5 -15 5 -6 7 7 10 15 7 18 -3 3 -9 -2 -12 -12z"/>
<path d="M1979 1557 c7 -7 14 -8 21 -1 6 6 2 10 -12 11 -16 2 -18 -1 -9 -10z"/>
<path d="M1043 1545 c0 -8 4 -15 9 -15 4 0 8 4 8 9 0 6 -4 12 -8 15 -5 3 -9
-1 -9 -9z"/>
<path d="M1868 1553 c6 -2 18 -2 25 0 6 3 1 5 -13 5 -14 0 -19 -2 -12 -5z"/>
<path d="M1785 1540 c3 -5 8 -10 11 -10 2 0 4 5 4 10 0 6 -5 10 -11 10 -5 0
-7 -4 -4 -10z"/>
<path d="M1686 1528 c3 -5 10 -6 15 -3 13 9 11 12 -6 12 -8 0 -12 -4 -9 -9z"/>
<path d="M839 1498 c-1 -18 -1 -41 0 -50 1 -10 -4 -18 -13 -18 -12 0 -16 11
-16 47 l0 46 -105 -104 c-57 -57 -109 -105 -115 -107 -5 -2 -10 -28 -10 -58 0
-30 -4 -54 -10 -54 -10 0 -14 15 -11 34 1 5 -1 16 -4 25 -5 13 -15 7 -46 -29
-49 -57 -40 -67 61 -69 31 -1 41 -4 30 -10 -8 -6 -19 -7 -25 -3 -5 3 -4 -1 3
-10 15 -19 7 -26 -30 -23 -15 1 -25 -2 -22 -7 3 -4 9 -6 14 -3 5 3 11 1 15 -5
3 -5 -2 -10 -12 -10 -134 -4 -280 -14 -287 -21 -6 -5 13 -9 47 -9 l57 0 0 -34
c0 -28 6 -38 40 -60 l41 -27 -3 -199 c-2 -126 0 -196 6 -190 15 15 26 12 26
-5 0 -8 9 -15 20 -15 11 0 20 7 20 15 0 12 14 15 64 15 60 0 64 -2 70 -25 6
-25 29 -34 41 -15 3 6 25 11 48 11 l42 2 -35 6 c-32 6 -33 8 -13 15 13 4 49 5
80 2 32 -3 122 -8 200 -12 94 -4 140 -10 136 -17 -4 -6 -1 -7 6 -2 28 16 -12
23 -208 35 -135 7 -211 16 -224 25 -19 14 -26 13 178 1 36 -2 52 -1 40 4 -14
6 -3 9 40 12 48 4 42 5 -30 5 -49 1 -98 4 -108 8 -10 4 -43 5 -73 2 -30 -3
-54 -2 -54 4 0 5 6 9 13 9 7 0 4 7 -7 15 -17 13 -18 15 -3 15 24 0 24 57 0 63
-17 4 -17 5 0 6 21 1 24 41 2 41 -19 0 -15 23 5 32 12 5 12 7 -2 7 -10 1 -18
5 -18 10 0 5 8 12 18 14 16 4 16 5 0 6 -10 0 -18 4 -18 7 0 4 8 13 18 20 16
13 16 13 0 14 -10 0 -18 5 -18 10 0 6 8 10 18 11 15 0 15 1 -2 8 -17 6 -17 8
-3 14 9 3 17 20 19 39 3 32 4 33 63 39 33 4 128 8 210 9 83 2 138 5 123 7 -16
2 -28 11 -28 19 0 8 11 14 28 15 24 0 24 1 7 8 -11 5 -23 7 -27 4 -5 -2 -8 0
-8 6 0 5 6 12 13 14 10 4 10 6 0 6 -25 2 -13 31 12 31 15 0 25 6 25 15 0 9 6
12 15 9 14 -6 15 -49 15 -330 -1 -362 -1 -362 63 -348 17 4 60 6 95 6 34 -1
60 3 57 7 -2 5 2 14 10 21 11 9 15 9 15 1 0 -7 5 -9 13 -4 16 10 99 6 106 -6
3 -4 22 -11 41 -14 39 -7 64 7 66 36 0 9 1 56 2 105 l2 87 81 -3 81 -4 -4
-123 c-2 -68 1 -121 5 -116 4 4 6 123 5 264 l-3 257 23 0 c22 0 22 -1 22 -140
0 -77 0 -143 -1 -146 -1 -8 22 -24 34 -24 4 0 7 9 7 20 0 14 7 20 23 20 16 0
18 -3 9 -9 -11 -7 -10 -10 3 -15 9 -3 18 -6 21 -6 2 0 5 64 6 142 3 127 5 143
21 146 16 3 17 -11 17 -192 l0 -196 66 0 c41 0 63 -4 59 -10 -8 -13 -5 -12 32
0 17 6 43 12 59 14 16 2 32 4 36 5 4 0 9 65 10 143 l3 143 51 5 52 5 -58 180
c-32 99 -75 233 -95 298 -21 65 -40 115 -44 112 -3 -4 -56 -106 -117 -228
l-111 -222 -87 -3 -87 -2 3 42 3 43 83 5 c84 5 87 7 114 55 9 17 7 17 -11 -2
-16 -17 -34 -23 -64 -24 -23 0 -78 -2 -122 -5 -217 -12 -345 -11 -345 3 0 7 5
13 10 13 6 0 9 5 8 12 -2 6 8 15 22 19 24 7 24 7 3 8 -27 1 -31 21 -5 21 13 0
14 2 3 9 -7 5 -9 11 -4 14 5 4 9 16 8 29 -2 23 -28 36 -70 36 -11 0 -1 -5 23
-12 l43 -11 -34 -39 -33 -40 -77 11 c-67 10 -83 16 -136 57 -33 25 -62 46 -65
46 -3 0 -6 -18 -6 -40 0 -29 -4 -40 -15 -40 -12 0 -15 -18 -15 -98 l0 -99
-112 -6 c-62 -4 -143 -7 -180 -7 l-68 0 1 123 c0 67 3 129 7 138 4 9 34 41 67
71 47 43 69 56 102 61 39 5 48 1 109 -45 36 -27 68 -47 71 -45 9 10 -5 22
-127 116 l-120 92 -1 -33z m911 -433 l0 -45 -190 -2 c-104 -1 -216 -2 -247 -3
l-58 0 -3 38 c-3 36 -2 37 30 38 36 2 358 14 426 17 l42 2 0 -45z m-1130 -30
l0 -35 -90 0 c-84 0 -90 -1 -90 -20 0 -20 -1 -20 -30 -5 -24 13 -30 22 -30 50
l0 34 58 4 c31 2 85 4 120 5 l62 2 0 -35z m27 -185 c-2 -106 -5 -130 -16 -130
-11 0 -9 -4 5 -14 18 -14 18 -15 1 -22 -10 -4 -14 -10 -9 -13 5 -3 11 -27 14
-53 4 -37 2 -48 -8 -48 -8 0 -14 6 -14 13 0 7 -12 18 -27 24 l-28 11 28 1 c43
2 31 21 -13 21 l-40 0 2 163 3 162 30 1 30 2 -28 -5 c-20 -3 -27 -9 -23 -20 3
-8 7 -67 8 -131 l2 -117 5 105 5 105 6 -110 6 -110 2 133 c2 105 5 132 16 132
8 0 16 7 20 15 3 8 10 15 15 15 6 0 9 -53 8 -130z m1107 104 c3 -9 6 -45 6
-80 l0 -64 -30 0 c-24 0 -30 4 -30 21 0 18 4 20 25 15 24 -6 25 -5 25 49 0 52
-1 55 -25 55 -14 0 -25 5 -25 10 0 16 47 11 54 -6z m-941 -351 c-13 -2 -33 -2
-45 0 -13 2 -3 4 22 4 25 0 35 -2 23 -4z m687 -13 c0 -5 -2 -10 -4 -10 -3 0
-8 5 -11 10 -3 6 -1 10 4 10 6 0 11 -4 11 -10z m90 -26 c0 -13 -4 -24 -10 -24
-5 0 -10 14 -10 31 0 17 4 28 10 24 6 -3 10 -17 10 -31z m-80 -4 c0 -5 -4 -10
-9 -10 -6 0 -13 5 -16 10 -3 6 1 10 9 10 9 0 16 -4 16 -10z m10 -36 c0 -9 -7
-14 -17 -12 -25 5 -28 28 -4 28 12 0 21 -6 21 -16z m70 -9 c0 -8 -4 -15 -10
-15 -5 0 -10 7 -10 15 0 8 5 15 10 15 6 0 10 -7 10 -15z"/>
<path d="M1146 1517 c3 -10 9 -15 12 -12 3 3 0 11 -7 18 -10 9 -11 8 -5 -6z"/>
<path d="M1550 1526 c0 -7 50 -13 55 -7 2 4 -10 8 -26 9 -16 1 -29 1 -29 -2z"/>
<path d="M1458 1513 c6 -2 18 -2 25 0 6 3 1 5 -13 5 -14 0 -19 -2 -12 -5z"/>
<path d="M1360 1494 l-25 -14 30 6 c35 8 39 10 28 17 -5 3 -19 -1 -33 -9z"/>
<path d="M1125 1480 c-13 -6 -15 -9 -5 -9 8 0 22 4 30 9 18 12 2 12 -25 0z"/>
<path d="M1160 1470 c-9 -6 -10 -10 -3 -10 6 0 15 5 18 10 8 12 4 12 -15 0z"/>
<path d="M1398 1473 c7 -3 16 -2 19 1 4 3 -2 6 -13 5 -11 0 -14 -3 -6 -6z"/>
<path d="M1188 1453 c7 -3 16 -2 19 1 4 3 -2 6 -13 5 -11 0 -14 -3 -6 -6z"/>
<path d="M1333 1444 c0 -16 13 -19 21 -5 3 5 0 11 -7 14 -8 3 -14 -1 -14 -9z"/>
<path d="M1468 1433 c7 -3 16 -2 19 1 4 3 -2 6 -13 5 -11 0 -14 -3 -6 -6z"/>
<path d="M1228 1423 c7 -3 16 -2 19 1 4 3 -2 6 -13 5 -11 0 -14 -3 -6 -6z"/>
<path d="M1188 1413 c7 -3 16 -2 19 1 4 3 -2 6 -13 5 -11 0 -14 -3 -6 -6z"/>
<path d="M1329 1413 c-1 -5 -1 -11 0 -15 0 -5 -7 -8 -16 -9 -13 0 -11 -3 6
-10 13 -5 29 -8 35 -5 6 2 2 5 -9 6 l-20 1 20 9 20 9 -20 1 -20 1 20 9 c17 7
17 9 3 9 -10 1 -19 -2 -19 -6z"/>
<path d="M1398 1403 c6 -2 18 -2 25 0 6 3 1 5 -13 5 -14 0 -19 -2 -12 -5z"/>
<path d="M933 1355 c0 -27 2 -38 4 -22 2 15 2 37 0 50 -2 12 -4 0 -4 -28z"/>
<path d="M1258 1393 c7 -3 16 -2 19 1 4 3 -2 6 -13 5 -11 0 -14 -3 -6 -6z"/>
<path d="M1578 1393 c7 -3 16 -2 19 1 4 3 -2 6 -13 5 -11 0 -14 -3 -6 -6z"/>
<path d="M839 1353 l-34 -38 38 34 c34 33 42 41 34 41 -2 0 -19 -17 -38 -37z"/>
<path d="M1453 1383 c9 -2 23 -2 30 0 6 3 -1 5 -18 5 -16 0 -22 -2 -12 -5z"/>
<path d="M1678 1373 c7 -3 16 -2 19 1 4 3 -2 6 -13 5 -11 0 -14 -3 -6 -6z"/>
<path d="M952 1328 c3 -39 6 -43 31 -46 23 -3 27 0 27 21 0 21 -36 67 -53 67
-4 0 -6 -19 -5 -42z"/>
<path d="M1365 1360 c-7 -11 22 -26 32 -16 4 3 -1 6 -11 6 -9 0 -14 5 -11 10
3 6 4 10 1 10 -3 0 -8 -5 -11 -10z"/>
<path d="M1548 1363 c7 -3 16 -2 19 1 4 3 -2 6 -13 5 -11 0 -14 -3 -6 -6z"/>
<path d="M1933 1363 c9 -2 25 -2 35 0 9 3 1 5 -18 5 -19 0 -27 -2 -17 -5z"/>
<path d="M1268 1348 c5 -5 16 -8 23 -6 8 3 3 7 -10 11 -17 4 -21 3 -13 -5z"/>
<path d="M1438 1353 c7 -3 16 -2 19 1 4 3 -2 6 -13 5 -11 0 -14 -3 -6 -6z"/>
<path d="M867 1343 c-11 -10 -8 -73 3 -73 6 0 10 18 10 40 0 41 -2 45 -13 33z"/>
<path d="M1628 1343 c7 -3 16 -2 19 1 4 3 -2 6 -13 5 -11 0 -14 -3 -6 -6z"/>
<path d="M1483 1333 c9 -2 25 -2 35 0 9 3 1 5 -18 5 -19 0 -27 -2 -17 -5z"/>
<path d="M1298 1318 c5 -5 16 -8 23 -6 8 3 3 7 -10 11 -17 4 -21 3 -13 -5z"/>
<path d="M1020 1301 c0 -12 5 -21 10 -21 6 0 10 6 10 14 0 8 -4 18 -10 21 -5
3 -10 -3 -10 -14z"/>
<path d="M1348 1303 c6 -2 18 -2 25 0 6 3 1 5 -13 5 -14 0 -19 -2 -12 -5z"/>
<path d="M1903 1303 c9 -2 23 -2 30 0 6 3 -1 5 -18 5 -16 0 -22 -2 -12 -5z"/>
<path d="M1588 1283 c7 -3 16 -2 19 1 4 3 -2 6 -13 5 -11 0 -14 -3 -6 -6z"/>
<path d="M960 1220 c0 -50 4 -55 34 -44 11 4 16 19 16 50 0 40 -2 44 -25 44
-23 0 -25 -3 -25 -50z"/>
<path d="M1020 1238 c0 -18 5 -40 10 -48 7 -11 10 -2 10 33 0 26 -4 47 -10 47
-5 0 -10 -15 -10 -32z"/>
<path d="M860 1215 c0 -25 5 -45 10 -45 6 0 10 20 10 45 0 25 -4 45 -10 45 -5
0 -10 -20 -10 -45z"/>
<path d="M1568 1253 c7 -3 16 -2 19 1 4 3 -2 6 -13 5 -11 0 -14 -3 -6 -6z"/>
<path d="M860 1110 c0 -27 5 -50 10 -50 6 0 10 23 10 50 0 28 -4 50 -10 50 -5
0 -10 -22 -10 -50z"/>
<path d="M963 1115 c0 -27 2 -38 4 -22 2 15 2 37 0 50 -2 12 -4 0 -4 -28z"/>
<path d="M1498 1153 c6 -2 18 -2 25 0 6 3 1 5 -13 5 -14 0 -19 -2 -12 -5z"/>
<path d="M330 1130 c-9 -6 -10 -10 -3 -10 6 0 15 5 18 10 8 12 4 12 -15 0z"/>
<path d="M295 1100 c-3 -6 1 -7 9 -4 18 7 21 14 7 14 -6 0 -13 -4 -16 -10z"/>
<path d="M2361 1010 c0 -8 4 -22 9 -30 12 -18 12 -2 0 25 -6 13 -9 15 -9 5z"/>
<path d="M1090 794 l0 -191 33 6 c31 5 31 6 5 9 -16 2 -28 9 -28 17 0 8 12 16
28 18 l27 4 -27 2 c-16 0 -28 5 -28 10 0 5 12 12 28 14 l27 4 -27 2 c-17 0
-28 7 -28 15 0 8 12 17 28 19 l27 4 -27 2 c-28 1 -42 31 -15 31 8 0 8 3 2 8
-6 4 -12 19 -13 34 -1 22 3 27 26 31 l27 4 -27 2 c-16 0 -28 5 -28 10 0 5 12
12 28 14 l27 4 -27 2 c-17 0 -28 7 -28 15 0 8 12 17 28 19 l27 4 -27 2 c-17 0
-28 7 -28 15 0 8 12 17 28 19 l27 4 -27 2 c-35 1 -37 21 -3 21 14 0 25 3 25 8
0 4 -13 7 -30 7 l-30 0 0 -191z"/>
<path d="M860 905 c0 -25 5 -45 10 -45 6 0 10 20 10 45 0 25 -4 45 -10 45 -5
0 -10 -20 -10 -45z"/>
<path d="M960 905 c0 -41 2 -45 25 -45 23 0 25 4 25 45 0 41 -2 45 -25 45 -23
0 -25 -4 -25 -45z"/>
<path d="M1020 905 c0 -25 5 -45 10 -45 6 0 10 20 10 45 0 25 -4 45 -10 45 -5
0 -10 -20 -10 -45z"/>
<path d="M860 805 c0 -25 5 -45 10 -45 6 0 10 20 10 45 0 25 -4 45 -10 45 -5
0 -10 -20 -10 -45z"/>
<path d="M960 805 c0 -41 2 -45 25 -45 23 0 25 4 25 45 0 41 -2 45 -25 45 -23
0 -25 -4 -25 -45z"/>
<path d="M1022 805 c-1 -25 2 -45 8 -45 5 0 10 20 10 45 0 25 -4 45 -8 45 -5
0 -10 -20 -10 -45z"/>
<path d="M1128 793 c7 -3 16 -2 19 1 4 3 -2 6 -13 5 -11 0 -14 -3 -6 -6z"/>
<path d="M860 705 c0 -25 5 -45 10 -45 6 0 10 20 10 45 0 25 -4 45 -10 45 -5
0 -10 -20 -10 -45z"/>
<path d="M960 705 c0 -41 2 -45 25 -45 23 0 25 4 25 45 0 41 -2 45 -25 45 -23
0 -25 -4 -25 -45z"/>
<path d="M1020 705 c0 -35 4 -45 16 -45 13 0 15 7 10 31 -3 17 -6 38 -6 45 0
8 -4 14 -10 14 -5 0 -10 -20 -10 -45z"/>
<path d="M1697 683 c18 -2 50 -2 70 0 21 2 7 4 -32 4 -38 0 -55 -2 -38 -4z"/>
<path d="M1925 670 c3 -5 14 -10 23 -10 15 0 15 2 2 10 -20 13 -33 13 -25 0z"/>
<path d="M1679 656 c9 -11 9 -15 -1 -19 -8 -3 -5 -6 7 -7 l20 -1 -20 -9 c-26
-11 46 -11 90 0 l30 8 -30 2 -30 2 30 8 c28 7 27 8 -15 10 l-45 3 45 7 c42 7
41 7 -24 8 -58 2 -67 0 -57 -12z"/>
<path d="M1860 640 c0 -22 5 -30 18 -31 14 0 14 -2 -3 -9 -19 -8 -19 -9 3 -9
13 -1 22 5 22 14 0 8 -8 15 -17 16 -15 0 -15 2 2 9 l20 9 -20 1 c-19 1 -19 2
-1 9 18 7 18 8 2 14 -26 10 -26 10 -26 -23z"/>
<path d="M1928 643 c6 -2 18 -2 25 0 6 3 1 5 -13 5 -14 0 -19 -2 -12 -5z"/>
<path d="M1930 620 c20 -13 33 -13 25 0 -3 6 -14 10 -23 10 -15 0 -15 -2 -2
-10z"/>
<path d="M1048 603 c7 -3 16 -2 19 1 4 3 -2 6 -13 5 -11 0 -14 -3 -6 -6z"/>
<path d="M1715 600 l-50 -7 63 -1 c36 -1 62 2 62 8 0 6 -6 9 -12 8 -7 0 -35
-4 -63 -8z"/>
<path d="M1925 600 c3 -5 14 -10 23 -10 15 0 15 2 2 10 -20 13 -33 13 -25 0z"/>
<path d="M998 583 c17 -2 47 -2 65 0 17 2 3 4 -33 4 -36 0 -50 -2 -32 -4z"/>
<path d="M1697 573 c18 -2 50 -2 70 0 21 2 7 4 -32 4 -38 0 -55 -2 -38 -4z"/>
<path d="M1688 553 c12 -2 32 -2 45 0 12 2 2 4 -23 4 -25 0 -35 -2 -22 -4z"/>
<path d="M843 523 c15 -2 37 -2 50 0 12 2 0 4 -28 4 -27 0 -38 -2 -22 -4z"/>
<path d="M998 513 c18 -2 45 -2 60 0 15 2 0 4 -33 4 -33 0 -45 -2 -27 -4z"/>
<path d="M1118 503 c6 -2 18 -2 25 0 6 3 1 5 -13 5 -14 0 -19 -2 -12 -5z"/>
</g>
</svg>
